{"title":"The Young Montalbano S02E05 - The Honest Thief x264 RB58.mp4","uid":13385482,"size":1180642053,"categoryP":"video","categoryS":"tv_shows","magnet":"?xt=urn:btih:8f72a20fbca81b98796ddbe3af7fdf4db0bb0ac5&amp;dn=The+Young+Montalbano+S02E05+-+The+Honest+Thief+x264+RB58.mp4&amp;tr=udp%3A%2F%2Ftracker.leechers-paradise.org%3A6969&amp;tr=udp%3A%2F%2Fzer0day.ch%3A1337&amp;tr=udp%3A%2F%2Fopen.demonii.com%3A1337&amp;tr=udp%3A%2F%2Ftracker.coppersurfer.tk%3A6969&amp;tr=udp%3A%2F%2Fexodus.desync.com%3A6969","seeders":1,"leechers":0,"uploader":"RedBaron58","files":1,"time":1454291521,"description":"The Young Montalbano S02E05 - The Honest Thief x264 mp4\r\nIn Italian with hard coded BBC subtitles\r\n \nhttp://www.imdb.com/title/tt2259665/\r\n\r\nTrailer (Series 1):\r\n\r\n\r\nPlease be patient My intial upload speed is limited.\r\nThank you for your kind comments and feedback on my other torrents, your feedback is welcome.\r\n\r\n\r\nAbout the Episode:\r\nSalvo requests a transfer to Genoa to be closer to Livia, but it is clear from his demeanour \r\nhe is reluctant to leave his beloved Sicily. However, all thoughts of relocating are put from \r\nhis mind when a Milanese barmaid living in Vigata disappears. \r\nRumours abound about her excessive promiscuity, and people begin to jump to sordid conclusions. \r\nMontalbano balances this case with another involving a spate of unusual burglaries, in which \r\nthe victims report the theft of bafflingly small amounts of money.\r\n  \r\nStarring Michele Riondino.\r\n\r\n\r\nI hope you enjoy.\r\n\r\n\r\nTechnical:\r\n\r\nGeneral\r\nComplete name                            : G:The Young Montalbano S02E05 - The Honest Thief x264 RB58.mp4\r\nFormat                                   : MPEG-4\r\nFormat profile                           : Base Media\r\nCodec ID                                 : isom\r\nFile size                                : 1.10 GiB\r\nDuration                                 : 1h 43mn\r\nOverall bit rate                         : 1 521 Kbps\r\nWriting application                      : Lavf54.63.104\r\n\r\nVideo\r\nID                                       : 1\r\nFormat                                   : AVC\r\nFormat/Info                              : Advanced Video Codec\r\nFormat profile                           :   \r\nFormat settings, CABAC                   : Yes\r\nFormat settings, ReFrames                : 4 frames\r\nCodec ID                                 : avc1\r\nCodec ID/Info                            : Advanced Video Coding\r\nDuration                                 : 1h 43mn\r\nBit rate                                 : 1 400 Kbps\r\nWidth                                    : 832 pixels\r\nHeight                                   : 468 pixels\r\nDisplay aspect ratio                     : 16:9\r\nFrame rate mode                          : Constant\r\nFrame rate                               : 25.000 fps\r\nColor space                              : YUV\r\nChroma subsampling                       : 4:2:0\r\nBit depth                                : 8 bits\r\nScan type                                : Progressive\r\nBits/(Pixel*Frame)                       : 0.144\r\nStream size                              : 1.01 GiB (92%)\r\nWriting library                          : x264 core 123 r2189 35cf912\r\nEncoding settings                        : cabac=1 / ref=3 / deblock=1:0:0\r\n\r\nAudio\r\nID                                       : 2\r\nFormat                                   : AAC\r\nFormat/Info                              : Advanced Audio Codec\r\nFormat profile                           : LC\r\nCodec ID                                 : 40\r\nDuration                                 : 1h 43mn\r\nBit rate mode                            : Constant\r\nBit rate                                 : 112 Kbps\r\nChannel(s)                               : 2 channels\r\nChannel positions                        : Front: L R\r\nSampling rate                            : 48.0 KHz\r\nCompression mode                         : Lossy\r\nStream size                              : 83.0 MiB (7%)","torrent":{"xt":"urn:btih:8f72a20fbca81b98796ddbe3af7fdf4db0bb0ac5","amp;dn":"The+Young+Montalbano+S02E05+-+The+Honest+Thief+x264+RB58.mp4","amp;tr":["udp%3A%2F%2Ftracker.leechers-paradise.org%3A6969","udp%3A%2F%2Fzer0day.ch%3A1337","udp%3A%2F%2Fopen.demonii.com%3A1337","udp%3A%2F%2Ftracker.coppersurfer.tk%3A6969","udp%3A%2F%2Fexodus.desync.com%3A6969"],"infoHash":"8f72a20fbca81b98796ddbe3af7fdf4db0bb0ac5","infoHashBuffer":{"type":"Buffer","data":[143,114,162,15,188,168,27,152,121,109,219,227,175,127,223,77,176,187,10,197]},"announce":[],"urlList":[]}}